<?xml version="1.0" encoding="utf-8"?>
<!-- Svg Vector Icons : http://www.onlinewebfonts.com/icon -->
<!DOCTYPE svg PUBLIC "-//W3C//DTD SVG 1.1//EN" "http://www.w3.org/Graphics/SVG/1.1/DTD/svg11.dtd">
<svg version="1.1" xmlns="http://www.w3.org/2000/svg" xmlns:xlink="http://www.w3.org/1999/xlink" x="0px" y="0px" viewBox="0 0 1000 1000" enable-background="new 0 0 1000 1000" xml:space="preserve">
<metadata> Svg Vector Icons : http://www.onlinewebfonts.com/icon </metadata>
<g><path d="M255,622.4h250.3l0,0c12.7,35.7,46.8,61.3,86.7,61.3h306c50.7,0,92-41.3,92-92v-61c0-50.7-41.3-92-92-92H592c-50.7,0-92,41.3-92,92v30.5H255V500h120.6c68.6,0,124.4-55.8,124.4-124.4V134.4C500,65.8,444.2,10,375.6,10H134.4C65.8,10,10,65.8,10,134.4v241.2C10,444.2,65.8,500,134.4,500h59.3v398.9c0,16.9,13.7,30.6,30.6,30.6c2.3,0,4.5-0.3,6.6-0.8h274.3l0,0C518,964.5,552.1,990,592,990h306c50.7,0,92-41.3,92-92v-61c0-50.7-41.3-92-92-92H592c-50.7,0-92,41.3-92,92v30.5H255V622.4z M561.3,530.6c0-16.9,13.8-30.7,30.7-30.7h306c16.9,0,30.7,13.8,30.7,30.7v61c0,16.9-13.8,30.7-30.7,30.7H592c-16.9,0-30.7-13.8-30.7-30.7V530.6z M71.3,375.5V134.3c0-34.8,28.3-63.2,63.2-63.2h241.2c34.8,0,63.2,28.3,63.2,63.2v241.2c0,34.8-28.3,63.2-63.2,63.2H134.4C99.6,438.6,71.3,410.3,71.3,375.5z M561.3,836.9c0-16.9,13.8-30.7,30.7-30.7h306c16.9,0,30.7,13.8,30.7,30.7v61c0,16.9-13.8,30.7-30.7,30.7H592c-16.9,0-30.7-13.8-30.7-30.7V836.9z"/><path d="M622.6,254.9h107.2v107.2c0,16.9,13.7,30.6,30.6,30.6S791,379,791,362.1V254.9h107.2c16.9,0,30.6-13.7,30.6-30.6c0-16.9-13.7-30.6-30.6-30.6H791V86.4c0-16.9-13.7-30.6-30.6-30.6s-30.6,13.7-30.6,30.6v107.2H622.6c-16.9,0-30.6,13.7-30.6,30.6C591.9,241.2,605.6,254.9,622.6,254.9z"/></g>
</svg>